<svg width="96" height="91" viewBox="0 0 96 91" fill="none" xmlns="http://www.w3.org/2000/svg">
<path d="M90.0981 26.2342C97.734 40.6852 98.0221 58.171 90.6023 70.3098C83.1826 82.3764 67.9108 89.2407 50.1178 90.6858C32.3247 92.2031 12.0104 88.3736 4.08635 75.9457C-3.90972 63.5179 0.628586 42.5639 10.7858 26.5955C20.9429 10.6271 36.863 -0.283413 52.2068 0.00560721C67.6227 0.294628 82.4622 11.7832 90.0981 26.2342Z" fill="#F7EEFF"/>
<path d="M49.1789 36.6464C49.7205 36.6464 50.2399 36.4313 50.6229 36.0483C51.0059 35.6653 51.221 35.1459 51.221 34.6043C51.221 34.0627 51.0059 33.5433 50.6229 33.1604C50.2399 32.7774 49.7205 32.5622 49.1789 32.5622C48.6374 32.5622 48.1179 32.7774 47.735 33.1604C47.352 33.5433 47.1369 34.0627 47.1369 34.6043C47.1369 35.1459 47.352 35.6653 47.735 36.0483C48.1179 36.4313 48.6374 36.6464 49.1789 36.6464ZM63.8789 54.9381V41.8551H64.1043C66.2922 41.8551 67.1913 39.0425 65.4028 37.7758L51.0703 27.6034C50.5178 27.2109 49.8568 27 49.1789 27C48.5011 27 47.8401 27.2109 47.2875 27.6034L32.9501 37.7758C31.1665 39.0425 32.0608 41.8526 34.2486 41.8526H34.4789V54.9356C33.0065 55.8813 32.0289 57.5326 32.0289 59.4118V62.6776C32.0289 63.0025 32.158 63.3141 32.3877 63.5439C32.6175 63.7736 32.9291 63.9026 33.2539 63.9026H65.1039C65.4288 63.9026 65.7404 63.7736 65.9702 63.5439C66.1999 63.3141 66.3289 63.0025 66.3289 62.6776V59.4118C66.3289 57.5326 65.3538 55.8813 63.8789 54.9381ZM48.7036 29.6026C48.8415 29.505 49.0063 29.4525 49.1753 29.4525C49.3442 29.4525 49.509 29.505 49.6469 29.6026L63.4624 39.4026H34.8905L48.7061 29.6026H48.7036ZM61.424 41.8526V54.1173C61.2887 54.1073 61.153 54.1024 61.0173 54.1026H56.524V41.8551H61.424V41.8526ZM36.9289 54.1173V41.8551H41.8289V54.1051H37.3356C37.1984 54.1051 37.0612 54.11 36.9265 54.1198L36.9289 54.1173ZM37.3381 56.5526H61.0222C62.6 56.5526 63.8789 57.8315 63.8789 59.4118V61.4526H34.4789V59.4118C34.4789 57.8315 35.7603 56.5526 37.3381 56.5526ZM47.9539 54.1026H44.2789V41.8551H47.9539V54.1051V54.1026ZM50.4039 54.1026V41.8551H54.0789V54.1051H50.4039V54.1026Z" fill="#9747FF"/>
</svg>
