<svg width="97" height="94" viewBox="0 0 97 94" fill="none" xmlns="http://www.w3.org/2000/svg">
<path d="M92.2251 20.3459C99.9981 34.263 97.8319 55.7453 88.9757 70.6616C80.1196 85.5065 64.6372 93.8568 48.9 93.9995C33.2266 94.0709 17.3619 86.0061 8.31464 70.9471C-0.796373 55.8881 -3.09005 33.8348 4.8104 19.8463C12.7109 5.85779 30.9329 -0.208643 48.8363 0.00546629C66.8035 0.148206 84.4521 6.42875 92.2251 20.3459Z" fill="#FEF3F5"/>
<path d="M58.7333 35.6C58.7333 36.1901 58.5072 36.756 58.1046 37.1733C57.702 37.5905 57.156 37.825 56.5867 37.825C56.0173 37.825 55.4713 37.5905 55.0687 37.1733C54.6662 36.756 54.44 36.1901 54.44 35.6C54.44 35.0098 54.6662 34.4439 55.0687 34.0266C55.4713 33.6094 56.0173 33.375 56.5867 33.375C57.156 33.375 57.702 33.6094 58.1046 34.0266C58.5072 34.4439 58.7333 35.0098 58.7333 35.6ZM53.3667 26.7C46.7635 26.7 41.56 32.0934 41.56 38.9375C41.56 39.8208 41.6459 40.7086 41.8219 41.5518C41.9464 42.1526 41.8047 42.6732 41.5171 42.9714L31.7712 53.0729C31.4716 53.383 31.2339 53.7514 31.0719 54.1568C30.9098 54.5623 30.8265 54.9969 30.8267 55.4358V58.9624C30.8267 59.8476 31.1659 60.6965 31.7698 61.3224C32.3736 61.9483 33.1927 62.2999 34.0467 62.2999H38.34C39.194 62.2999 40.013 61.9483 40.6169 61.3224C41.2207 60.6965 41.56 59.8476 41.56 58.9624V57.8499H43.7067C44.276 57.8499 44.822 57.6155 45.2246 57.1983C45.6272 56.781 45.8533 56.2151 45.8533 55.625V53.4H48C48.5693 53.4 49.1153 53.1655 49.5179 52.7483C49.9205 52.331 50.1467 51.7651 50.1467 51.1749V50.7745C51.205 51.0726 52.3084 51.1749 53.3667 51.1749C59.9698 51.1749 65.1733 45.7815 65.1733 38.9375C65.1733 32.0934 59.9698 26.7 53.3667 26.7ZM43.7067 38.9375C43.7067 33.3216 47.9485 28.925 53.3667 28.925C58.7848 28.925 63.0267 33.3216 63.0267 38.9375C63.0267 44.5534 58.7848 48.95 53.3667 48.95C51.9499 48.95 50.634 48.7386 49.5542 48.1779C49.3905 48.0929 49.2087 48.0527 49.0258 48.0611C48.8429 48.0695 48.6652 48.1262 48.5095 48.2259C48.3537 48.3255 48.2252 48.4648 48.136 48.6305C48.0468 48.7962 48 48.9827 48 49.1725V51.1749H45.8533C45.284 51.1749 44.738 51.4094 44.3354 51.8266C43.9328 52.2439 43.7067 52.8098 43.7067 53.4V55.625H41.56C40.9907 55.625 40.4446 55.8594 40.0421 56.2766C39.6395 56.6939 39.4133 57.2598 39.4133 57.8499V58.9624C39.4133 59.2575 39.3002 59.5405 39.099 59.7491C38.8977 59.9577 38.6247 60.075 38.34 60.075H34.0467C33.762 60.075 33.489 59.9577 33.2877 59.7491C33.0864 59.5405 32.9733 59.2575 32.9733 58.9624V55.4336C32.9734 55.1391 33.0861 54.8567 33.2867 54.6482L43.0348 44.5445C43.9621 43.5833 44.1553 42.2215 43.9192 41.0823C43.776 40.3771 43.7047 39.6582 43.7067 38.9375Z" fill="#FB6A84"/>
</svg>
