<svg width="94" height="96" viewBox="0 0 94 96" fill="none" xmlns="http://www.w3.org/2000/svg">
<path d="M87.7476 20.7997C96.664 35.2537 95.8534 56.2482 86.5317 71.5904C77.129 86.9325 59.2962 96.5416 42.5172 95.9764C25.7382 95.3304 10.013 84.5101 3.52835 70.8636C-2.87523 57.2172 -0.0382047 40.7445 7.82442 26.9366C15.687 13.1286 28.5753 1.90461 44.3816 0.208899C60.1879 -1.40607 78.8312 6.42652 87.7476 20.7997Z" fill="#F2F5FF"/>
<path d="M47.8214 57.9231V63.3077H55.75C56.1005 63.3077 56.4366 63.4495 56.6844 63.702C56.9322 63.9544 57.0714 64.2968 57.0714 64.6538C57.0714 65.0109 56.9322 65.3533 56.6844 65.6057C56.4366 65.8582 56.1005 66 55.75 66H37.25C36.8995 66 36.5634 65.8582 36.3156 65.6057C36.0678 65.3533 35.9286 65.0109 35.9286 64.6538C35.9286 64.2968 36.0678 63.9544 36.3156 63.702C36.5634 63.4495 36.8995 63.3077 37.25 63.3077H45.1786V57.9231H33.2857C31.8839 57.9231 30.5394 57.3558 29.5481 56.346C28.5569 55.3361 28 53.9666 28 52.5385V36.3846C28 34.9565 28.5569 33.5869 29.5481 32.5771C30.5394 31.5673 31.8839 31 33.2857 31H59.7143C61.1161 31 62.4606 31.5673 63.4518 32.5771C64.4431 33.5869 65 34.9565 65 36.3846V52.5385C65 53.9666 64.4431 55.3361 63.4518 56.346C62.4606 57.3558 61.1161 57.9231 59.7143 57.9231H47.8214ZM33.2857 33.6923C32.5848 33.6923 31.9126 33.976 31.4169 34.4809C30.9213 34.9858 30.6429 35.6706 30.6429 36.3846V52.5385C30.6429 53.2525 30.9213 53.9373 31.4169 54.4422C31.9126 54.9471 32.5848 55.2308 33.2857 55.2308H59.7143C60.4152 55.2308 61.0874 54.9471 61.5831 54.4422C62.0787 53.9373 62.3571 53.2525 62.3571 52.5385V36.3846C62.3571 35.6706 62.0787 34.9858 61.5831 34.4809C61.0874 33.976 60.4152 33.6923 59.7143 33.6923H33.2857Z" fill="#2B70FA"/>
</svg>
