<svg width="96" height="91" viewBox="0 0 96 91" fill="none" xmlns="http://www.w3.org/2000/svg">
<path d="M90.0981 26.2342C97.734 40.6852 98.0221 58.171 90.6023 70.3098C83.1826 82.3764 67.9108 89.2407 50.1178 90.6858C32.3247 92.2031 12.0104 88.3736 4.08635 75.9457C-3.90972 63.5179 0.628587 42.5639 10.7858 26.5955C20.9429 10.6271 36.863 -0.283413 52.2068 0.00560721C67.6227 0.294628 82.4622 11.7832 90.0981 26.2342Z" fill="#FFF1E4"/>
<path d="M55.3818 56.805L54.4485 49.3325C54.3162 48.2741 53.8019 47.3004 53.0021 46.5947C52.2023 45.8889 51.1722 45.4996 50.1056 45.5H46.8914C45.8253 45.5003 44.7959 45.8899 43.9967 46.5956C43.1976 47.3013 42.6836 48.2746 42.5514 49.3325L41.6166 56.805C41.5653 57.2155 41.6019 57.6323 41.7241 58.0276C41.8462 58.4229 42.051 58.7877 42.3249 59.0977C42.5989 59.4078 42.9356 59.656 43.3129 59.826C43.6901 59.9959 44.0991 60.0836 44.5129 60.0833H52.487C52.9007 60.0834 53.3096 59.9955 53.6866 59.8255C54.0637 59.6555 54.4002 59.4072 54.674 59.0972C54.9478 58.7872 55.1525 58.4224 55.2745 58.0272C55.3965 57.632 55.4331 57.2154 55.3818 56.805V56.805Z" stroke="#E46925" stroke-width="2" stroke-linecap="round" stroke-linejoin="round"/>
<path d="M48.5 39.6667C50.9162 39.6667 52.875 37.708 52.875 35.2917C52.875 32.8755 50.9162 30.9167 48.5 30.9167C46.0838 30.9167 44.125 32.8755 44.125 35.2917C44.125 37.708 46.0838 39.6667 48.5 39.6667Z" stroke="#E46925" stroke-width="2"/>
<path d="M36.8333 44.0418C38.4441 44.0418 39.75 42.736 39.75 41.1252C39.75 39.5143 38.4441 38.2085 36.8333 38.2085C35.2225 38.2085 33.9166 39.5143 33.9166 41.1252C33.9166 42.736 35.2225 44.0418 36.8333 44.0418Z" stroke="#E46925" stroke-width="2"/>
<path d="M60.1667 44.0418C61.7775 44.0418 63.0833 42.736 63.0833 41.1252C63.0833 39.5143 61.7775 38.2085 60.1667 38.2085C58.5558 38.2085 57.25 39.5143 57.25 41.1252C57.25 42.736 58.5558 44.0418 60.1667 44.0418Z" stroke="#E46925" stroke-width="2"/>
<path d="M36.8333 48.4167H36.387C35.6966 48.4167 35.0285 48.6615 34.5017 49.1077C33.9748 49.5539 33.6233 50.1726 33.5097 50.8536L33.0241 53.7703C32.9544 54.1882 32.9766 54.6162 33.0891 55.0247C33.2016 55.4331 33.4017 55.8121 33.6756 56.1354C33.9494 56.4586 34.2904 56.7183 34.6748 56.8964C35.0592 57.0746 35.4778 57.1668 35.9014 57.1667H41.2083M60.1666 48.4167H60.6129C61.3033 48.4167 61.9714 48.6615 62.4982 49.1077C63.0251 49.5539 63.3766 50.1726 63.4901 50.8536L63.9758 53.7703C64.0455 54.1882 64.0233 54.6162 63.9108 55.0247C63.7983 55.4331 63.5981 55.8121 63.3243 56.1354C63.0505 56.4586 62.7095 56.7183 62.3251 56.8964C61.9407 57.0746 61.5221 57.1668 61.0985 57.1667H55.7916" stroke="#E46925" stroke-width="2" stroke-linecap="round" stroke-linejoin="round"/>
</svg>
