<svg width="99" height="100" viewBox="0 0 99 100" fill="none" xmlns="http://www.w3.org/2000/svg">
<path d="M95.1789 28.6727C102.136 44.5251 99.0176 64.7256 90.4607 78.3133C81.9038 91.8105 67.9888 98.6044 53.1942 99.2384C38.3196 99.8725 22.6453 94.2563 12.0091 79.3097C1.37297 64.4538 -4.14503 40.2676 3.69212 23.8717C11.6093 7.47583 32.8016 -1.22033 51.9946 0.138449C71.1876 1.49722 88.2215 12.9109 95.1789 28.6727Z" fill="#F4FFF3"/>
<path opacity="0.2" d="M57.625 57V62.5H46.625V57H57.625Z" fill="#4ECB71"/>
<path d="M30.125 57V37.75C30.125 37.0207 30.4147 36.3212 30.9305 35.8055C31.4462 35.2897 32.1457 35 32.875 35H63.125C63.8543 35 64.5538 35.2897 65.0695 35.8055C65.5853 36.3212 65.875 37.0207 65.875 37.75V57C65.875 57.3647 65.7301 57.7144 65.4723 57.9723C65.2144 58.2301 64.8647 58.375 64.5 58.375C64.1353 58.375 63.7856 58.2301 63.5277 57.9723C63.2699 57.7144 63.125 57.3647 63.125 57V37.75H32.875V57C32.875 57.3647 32.7301 57.7144 32.4723 57.9723C32.2144 58.2301 31.8647 58.375 31.5 58.375C31.1353 58.375 30.7856 58.2301 30.5277 57.9723C30.2699 57.7144 30.125 57.3647 30.125 57ZM68.625 62.5C68.625 62.8647 68.4801 63.2144 68.2223 63.4723C67.9644 63.7301 67.6147 63.875 67.25 63.875H28.75C28.3853 63.875 28.0356 63.7301 27.7777 63.4723C27.5199 63.2144 27.375 62.8647 27.375 62.5C27.375 62.1353 27.5199 61.7856 27.7777 61.5277C28.0356 61.2699 28.3853 61.125 28.75 61.125H45.25V57C45.25 56.6353 45.3949 56.2856 45.6527 56.0277C45.9106 55.7699 46.2603 55.625 46.625 55.625H57.625C57.9897 55.625 58.3394 55.7699 58.5973 56.0277C58.8551 56.2856 59 56.6353 59 57V61.125H67.25C67.6147 61.125 67.9644 61.2699 68.2223 61.5277C68.4801 61.7856 68.625 62.1353 68.625 62.5ZM48 61.125H56.25V58.375H48V61.125Z" fill="#4ECB71"/>
</svg>
