<svg width="99" height="88" viewBox="0 0 99 88" fill="none" xmlns="http://www.w3.org/2000/svg">
<path d="M95.1789 25.4134C102.136 39.4637 99.0176 57.3679 90.4607 69.4111C81.9038 81.374 67.9888 87.3956 53.1942 87.9576C38.3196 88.5196 22.6453 83.5418 12.0091 70.2943C1.37297 57.1271 -4.14503 35.6902 3.69212 21.1581C11.6093 6.62602 32.8016 -1.08161 51.9946 0.122711C71.1876 1.32703 88.2215 11.4433 95.1789 25.4134Z" fill="#FEFFDB"/>
<path d="M31.0357 27V49.7665L27.2069 53.6507C26.4402 54.4146 26.0064 55.4505 26 56.5328C26.0053 57.6023 26.4325 58.6264 27.1887 59.3827C27.945 60.1389 28.9692 60.5661 30.0386 60.5714H68.9614C70.0308 60.5661 71.055 60.1389 71.8113 59.3827C72.5675 58.6264 72.9947 57.6023 73 56.5328C72.9934 55.4496 72.5597 54.4127 71.7931 53.6473L67.9643 49.7648V27H31.0357ZM34.3929 30.3571H64.6071V48.8214H34.3929V30.3571ZM49.5 32.0357L46.9821 47.1429H49.5L52.0179 32.0357H49.5ZM42.9301 35.3929L40.0446 38.8641L39.4286 39.5893L40.0446 40.3144L42.9301 43.7857L44.753 42.3371L42.4668 39.5893L44.7496 36.8415L42.9317 35.3929H42.9301ZM56.0699 35.3929L54.247 36.8415L56.5332 39.5893L54.2504 42.3371L56.0716 43.7857L58.9571 40.3144L59.5714 39.5893L58.9554 38.8641L56.0699 35.3929ZM33.4478 52.1786H65.5505L69.433 56.0074C69.5664 56.15 69.6412 56.3375 69.6429 56.5328C69.6477 56.6236 69.6334 56.7143 69.6008 56.7992C69.5683 56.8841 69.5183 56.9612 69.454 57.0254C69.3897 57.0897 69.3126 57.1397 69.2278 57.1723C69.1429 57.2048 69.0521 57.2191 68.9614 57.2143H30.0386C29.9479 57.2191 29.8571 57.2048 29.7722 57.1723C29.6874 57.1397 29.6103 57.0897 29.546 57.0254C29.4817 56.9612 29.4317 56.8841 29.3992 56.7992C29.3666 56.7143 29.3523 56.6236 29.3571 56.5328C29.3571 56.3481 29.436 56.14 29.567 56.0074L33.4495 52.1786H33.4478Z" fill="#F2C763"/>
</svg>
